<svg width="14px" height="14px" viewBox="0 0 14 14" version="1.1" xmlns="http://www.w3.org/2000/svg" xmlns:xlink="http://www.w3.org/1999/xlink">
                              <g stroke="none" stroke-width="1" fill="none" fill-rule="evenodd">
                                  <g transform="translate(-906.000000, -18.000000)" fill="#5F67FF">
                                      <g transform="translate(895.000000, 7.000000)">
                                          <path d="M21.2083333,19.53125 L21.0625,19.7864583 L25,23.7604167 L23.7604167,25 L19.8229167,21.0260417 L19.5677083,21.2083333 C18.5954807,21.8159753 17.586811,22.1197917 16.5416667,22.1197917 C15.0104097,22.1197917 13.7039973,21.5729213 12.6223958,20.4791667 C11.5407932,19.385412 11,18.0729237 11,16.5416667 C11,15.0104097 11.5407932,13.7039973 12.6223958,12.6223947 C13.7039973,11.5407943 15.0104097,11 16.5416667,11 C18.0729237,11 19.379336,11.5407943 20.4609387,12.6223947 C21.542539,13.7039973 22.0833333,15.0104097 22.0833333,16.5416667 C22.0833333,17.6111173 21.791669,18.607635 21.2083333,19.53125 Z M19.306438,13.7788728 C18.5480205,13.0204553 17.6270982,12.6412517 16.5436441,12.6412517 C15.46019,12.6412517 14.5392677,13.0204553 13.7808502,13.7788728 C13.0224323,14.5372902 12.6432292,15.4582125 12.6432292,16.5416667 C12.6432292,17.6251208 13.0224323,18.5460431 13.7808502,19.3044606 C14.5392677,20.0628781 15.46019,20.4420816 16.5436441,20.4420816 C17.6270982,20.4420816 18.5480205,20.0628781 19.306438,19.3044606 C20.0865252,18.5243734 20.4765625,17.6034511 20.4765625,16.5416667 C20.4765625,15.4798822 20.0865252,14.5589599 19.306438,13.7788728 Z" id="Page-1"></path>
                                      </g>
                                  </g>
                              </g>
                          </svg>